<?xml version="1.0" encoding="utf-8"?>
<!-- Generator: Adobe Illustrator 21.1.0, SVG Export Plug-In . SVG Version: 6.00 Build 0)  -->
<svg version="1.1" id="Layer_1" xmlns="http://www.w3.org/2000/svg" xmlns:xlink="http://www.w3.org/1999/xlink" x="0px" y="0px"
	 viewBox="0 0 250 142" style="enable-background:new 0 0 250 142;" xml:space="preserve">
<style type="text/css">
	.st0{fill:#202020;}
</style>
<g>
	<path class="st0" d="M223.881,0c0.323,0.376,1.379,0.338,3.17,0.254C228.838,0.174,232.904,1,232.904,1h8.095l0.501,0.729
		c0.499,0.812,0.789,1.742,0.875,2.793c0.082,1.055-0.043,2.148-0.375,3.279c-0.168,0.649-0.543,1.42-1.125,2.308
		c-0.586,0.892-1.46,2.228-2.625,4.008c-1,1.298-1.961,2.593-2.875,3.887c-0.918,1.298-1.543,2.186-1.875,2.672L232,22.619
		l-0.25,58.296L229,81.157V78h-5v1.412v1.412l-1.882,0.236c-0.941,0-1.492,0.041-1.647,0.118c-0.158,0.081-0.236,0.199-0.236,0.353
		c0,0.316,0.236,0.47,0.707,0.47c0.47,0,2.194,0,5.176,0H232v2.148c0,0.783,0.077,1.288,0.234,1.521
		c0.154,0.234,0.387,0.432,0.702,0.586c1.246,0.936,1.99,2.421,2.223,4.447c0.234,2.029-0.117,3.744-1.052,5.149
		c-0.157,0.314-0.392,0.625-0.703,0.936c-0.314,0.314-0.548,0.468-0.702,0.468c-0.314,0.157-0.508,0.315-0.585,0.469
		C232.037,97.88,232,98.425,232,99.362V101h0.936c0.936,0,1.638,0.117,2.106,0.351c0.469,0.234,0.857,0.509,1.171,0.82
		c0.154,0.314,0.271,0.702,0.351,1.17c0.077,0.469,0.117,1.405,0.117,2.809c0,0.936-0.04,1.755-0.117,2.457
		c-0.081,0.702-0.117,1.134-0.117,1.288c-0.315,0.625-1.094,0.977-2.34,1.052c-1.251,0.081-4.916,0.117-11.001,0.117
		c-5.617,0-9.011,0.04-10.181,0.117c-1.171,0.081-1.755,0.275-1.755,0.586c3.745,0.157,6.864,0.233,9.362,0.233H230v5h-28v2.683
		c0,3.091-0.489,5.854-1.466,8.292c-0.977,2.438-2.526,4.794-4.64,7.072c-2.281,2.111-4.723,3.696-7.326,4.756
		c-2.606,1.056-5.456,1.501-8.546,1.341c-1.793-0.163-3.297-0.407-4.517-0.731c-1.221-0.327-2.564-0.896-4.029-1.707
		c-2.77-1.303-5.089-3.132-6.959-5.487c-1.873-2.358-3.217-4.999-4.029-7.926c-0.164-0.648-0.286-1.342-0.366-2.073
		c-0.084-0.731-0.122-1.745-0.122-3.049V117h-5.832c-1.784,0-3.729-0.082-5.831-0.25c-0.812,0.336-1.542,0.668-2.187,1
		c-1.135,0.836-2.392,1.543-3.766,2.125c-1.378,0.586-2.878,1.125-4.495,1.625L135.701,122L56,122.249v-2.005v-1.705l-3.095-0.974
		c-0.952-0.324-1.708-0.609-2.262-0.853c-0.558-0.244-0.915-0.366-1.071-0.366c-0.32-1.133-0.476-2.028-0.476-2.679
		c-0.636-2.436-1.429-4.829-2.381-7.186c-0.952-2.352-2.065-4.343-3.333-5.968c-0.476-0.811-1.232-1.785-2.262-2.923
		c-1.034-1.134-1.63-1.705-1.786-1.705c-0.16,0-0.32,0.244-0.476,0.731c-0.16,0.488-0.558,1.705-1.191,3.654l-0.714,1.462
		l1.429,0.731c0.792,0.651,1.823,1.667,3.095,3.044c1.269,1.382,2.143,2.558,2.619,3.533c1.109,1.948,1.864,3.695,2.262,5.237
		c0.394,1.545,0.595,3.452,0.595,5.724c0,1.949-0.119,3.574-0.358,4.872c-0.238,1.298-0.755,2.679-1.547,4.142
		c-1.272,2.759-3.095,5.115-5.476,7.064c-2.381,1.949-5,3.41-7.857,4.384c-1.272,0.324-3.058,0.487-5.357,0.487
		c-2.303,0-4.011-0.243-5.119-0.731c-3.97-1.138-7.262-3.166-9.881-6.089c-2.619-2.923-4.327-6.333-5.119-10.231
		c-0.16-1.134-0.201-2.679-0.119-4.628c0.078-1.949,0.275-3.57,0.595-4.871c0.156-1.134,0.674-2.517,1.548-4.142
		c0.87-1.621,1.704-2.923,2.5-3.898c1.269-1.621,2.857-3.044,4.762-4.263c1.905-1.218,3.888-2.071,5.953-2.558
		c0.952-0.324,2.299-0.526,4.048-0.609c1.745-0.08,3.252-0.038,4.524,0.122l1.19,0.243l1.19-3.654
		c0.476-0.974,0.833-1.785,1.072-2.436c0.238-0.647,0.357-1.054,0.357-1.218c-0.636-0.16-1.112-0.323-1.429-0.487
		c-1.749-0.648-3.534-1.176-5.357-1.583c-1.826-0.404-3.772-0.61-5.834-0.61c-0.636,0-1.51-0.08-2.619-0.244
		c0-0.159,0.554-0.731,1.667-1.705c1.108-0.974,1.983-1.705,2.619-2.192c1.429-0.648,3.095-1.256,5-1.827
		c1.905-0.568,3.966-1.012,6.191-1.34h1.428l0.715-2.436l0.476-2.436l-0.476-0.732c-0.16-0.159-0.398-0.365-0.715-0.609
		c-0.32-0.244-0.558-0.445-0.714-0.609c-0.476,0-0.796-0.122-0.952-0.366c-0.16-0.244-0.32-0.525-0.476-0.853
		c-0.32-0.647-0.517-1.499-0.595-2.558c-0.082-1.054-0.041-1.987,0.119-2.801c0.317-1.785,1.031-3.288,2.143-4.506
		c1.109-1.218,2.061-1.583,2.857-1.096c0.156,0,0.435,0,0.833,0c0.394,0,0.833,0,1.31,0h1.667l0.952-2.192
		c0.317-0.648,0.715-1.378,1.191-2.193c0.156,0,0.238-0.08,0.238-0.244c-0.16,0-0.16-0.08,0-0.243
		c0.156-0.16,0.554-0.853,1.19-2.071c0.633-1.218,0.87-1.827,0.715-1.827V54h-0.151l0.244,0.029c-0.164,0,0,0.971,0,0.971H47v-1.458
		c-0.827,0-0.869-0.038-0.785-0.122c0.08-0.08,0.202-0.202,0.366-0.366l0.244-0.487c-0.164,0-0.164-0.08,0-0.244l0.244-0.243
		c-0.164,0-0.164-0.08,0-0.244l0.244-0.244c-0.164,0-0.164-0.08,0-0.244c0.16-0.16,0.488-0.689,0.976-1.585
		c0.488-0.892,0.647-1.341,0.712-1.341V48h0.02c0,0,0.324,0.017,0.488-0.312c0.16-0.323,0.16-0.567,0-0.731
		c0-0.16,0.08-0.244,0.244,0.043H50v-0.53c-0.169,0-0.21-0.038-0.127-0.122c0.08-0.08,0.202-0.202,0.366-0.366l0.244-0.487
		c-0.164,0-0.164-0.08,0-0.244l0.244-0.244c-0.164,0-0.164-0.08,0-0.243l0.244-0.244c-0.164,0-0.244-0.038-0.244-0.122
		c0-0.08,0.08-0.122,0.244-0.122c0.16-0.16,0.446-0.609,0.854-1.341c0.404-0.732,0.526-1.098,0.366-1.098
		c0-0.16,0.08-0.244,0.244-0.244c0.16-0.16,0.488-0.731,0.976-1.707c0.487-0.976,0.59-1.463,0.59-1.463V38h0.245l0.245-0.245
		c-0.164,0-0.164-0.08,0-0.245c0.161-0.161,0.651-1.016,1.469-2.566c0.815-1.547,1.14-2.322,0.98-2.322
		c0-0.161,0.08-0.245,0.245-0.245c0.161-0.161,0.368-0.488,0.612-0.978c0.245-0.488,0.283-0.733,0.123-0.733
		c0-0.161,0.08-0.245,0.245-0.245c1.14-1.956,1.715-3.014,1.715-3.177C58.734,27.084,57.673,27,56.694,27c-1.309,0-2.246,0-2.816,0
		c-0.574,0-1.102-0.161-1.592-0.489c-1.309-0.488-2.41-1.137-3.306-1.955c-0.899-0.814-1.592-1.791-2.081-2.934
		c-0.165-0.489-0.367-1.223-0.612-2.2c-0.245-0.978-0.367-1.547-0.367-1.711c0.161,0,2.162-0.324,6-0.978
		c3.834-0.649,6.98-1.138,9.428-1.466c2.61-0.325,4.041-0.569,4.286-0.734C65.877,14.373,66,13.8,66,12.822v-1.471L64.628,11h-0.976
		c-0.328,0.595-0.976,1-0.976,1h-0.731l0.976-3.088c0.324-0.812,0.647-1.707,0.975-2.683c0.324-0.976,0.568-1.707,0.732-2.195
		l0.731-2.195l4.146-0.244l1.463,4.39l1.463,4.634L70.969,10h-1.098c0,0-0.773,0.947-1.097,1H68v1.814c0,0,0.324,0.854,0.408,1.098
		c0.08,0.244,0.202,0.366,0.366,0.366c3.086-0.488,5.689-0.892,7.804-1.219c9.755-1.299,19.224-2.477,28.412-3.536
		c9.184-1.056,18.249-1.989,27.193-2.805c4.226-0.488,10.037-1.014,17.437-1.585c7.396-0.567,15.121-1.135,23.169-1.707
		c8.048-0.568,15.853-1.098,23.412-1.585c7.561-0.488,13.779-0.892,18.657-1.22c2.11,0,4.023-0.038,5.73-0.122
		c1.708-0.08,2.721-0.122,3.049-0.498H223.881z M121,38.665V26h-3.878c-3.719,0-11.84,0.205-24.361,0.607
		c-12.525,0.405-18.869,0.689-19.028,0.848c-0.326,1.295-0.647,2.344-0.97,3.151L72.036,34h-0.6c-0.318,0-0.513,0-0.591,0
		c-0.081,0-0.118-0.16-0.118-0.489c0.155-0.324,0.432-1.381,0.827-3.175c0.391-1.79,0.591-2.767,0.591-2.931
		c0-0.16-0.672-0.245-2.009-0.245c-1.341,0-2.246,0.084-2.718,0.245c-0.159,0-0.395,0.652-0.709,1.954
		c-0.318,1.305-1.104,4.48-2.364,9.525c-0.79,3.095-1.418,5.824-1.891,8.182c-0.473,2.363-0.79,3.626-0.946,3.786
		c0,0.164,0.078,0.287,0.236,0.367c0.155,0.084,0.473,0.205,0.946,0.366c1.574,0.164,2.955,0.695,4.137,1.588
		c1.182,0.897,2.009,2.075,2.482,3.541c0,0.328,0.037,0.817,0.118,1.465c0.078,0.652,0.118,1.222,0.118,1.71l0.236,1.954
		l4.254,1.222c1.26,0.328,2.323,0.61,3.191,0.855c0.864,0.245,1.378,0.45,1.537,0.61c0.155,0,0.236,0.084,0.236,0.245
		c0,0.164,0,0.488,0,0.977c-0.159,0.328-0.236,0.817-0.236,1.465c0,0.652-0.277,0.977-0.827,0.977c-0.554,0-2.405-0.245-5.555-0.733
		c-1.736-0.325-3.782-0.733-6.146-1.222c-0.159,0-0.236-0.08-0.236-0.244c0-0.16,0-0.325,0-0.489c0-0.325-0.159-0.526-0.473-0.61
		c-0.318-0.08-1.263-0.367-2.837-0.855c-2.05-0.489-3.231-0.734-3.546-0.734c-0.318,0-0.473,0.164-0.473,0.489
		c0.155,0,0.591,0.53,1.3,1.587c0.709,1.061,1.537,2.241,2.482,3.541c0.946,1.466,1.732,2.687,2.363,3.664
		c0.628,0.977,0.946,1.55,0.946,1.71c-0.946,1.141-1.736,2.118-2.363,2.931c-0.632,0.817-1.341,1.71-2.128,2.687
		c0.155,0,1.928,0.652,5.318,1.954c3.387,1.306,7.365,2.851,11.937,4.641c4.569,1.629,8.546,3.095,11.937,4.396
		c3.387,1.306,5.16,1.954,5.318,1.954c0.155-0.648,0.237-1.222,0.237-1.71c0.155-0.977,0.314-1.71,0.473-2.199
		c0.155-0.488,0.391-0.977,0.709-1.465L97.673,87H116V76.223c0.167-2.927,0.086-6.055,0.086-9.39c0-3.33,0.914-7.682,0.914-7.682
		v-6.341l-0.67-0.731c0.324-0.488,0.61-0.732,0.854-1.079h1.829H121V38.422V38.665z M64.585,53.219
		c-0.488-0.323-1.017-0.567-1.585-0.731c-0.572-0.16-1.018-0.324-1.341-0.487h-1.22l-0.244,0.975
		c-0.328,1.464-0.815,3.742-1.463,6.829c0,0.164,0.934,0.449,2.805,0.854c1.867,0.408,2.885,0.609,3.048,0.609
		c0.16,0,0.282-0.038,0.366-0.122c0.08-0.079,0.038-0.201-0.122-0.365c0-0.324,0.038-0.488,0.122-0.488
		c0.08,0,0.609,0.164,1.585,0.488L68,61.267v-0.731c0.16-0.647,0.122-1.543-0.122-2.683c-0.244-1.136-0.53-1.951-0.854-2.438
		c-0.328-0.648-0.61-1.098-0.854-1.342C65.927,53.829,65.397,53.547,64.585,53.219z M163,25.249L162.25,24h-3.557
		c-2.464,0-13.771,0.329-33.924,0.982c0.152,5.074,0.231,9.411,0.231,13.01V51h3v4.931V61h73.138l1.207-2.897
		c1.606-3.217,3.417-5.83,5.431-7.845c2.009-2.01,3.82-3.018,5.431-3.018c0.482,0,1.244,0.121,2.293,0.362
		c1.045,0.242,1.969,0.603,2.776,1.086c0.159,0,0.279-0.4,0.362-1.207c0.078-0.803,0.12-3.137,0.12-7
		c0-2.252-0.082-4.986-0.241-8.207c-0.483,0.162-0.807,0.325-0.966,0.482c-0.483,0-2.014,0.042-4.586,0.121
		C210.39,32.962,204.434,33,195.104,33h-20.353l-1.25-0.5c-0.336-0.164-0.668-0.375-1-0.626c-0.336-0.249-0.668-0.457-1-0.625
		c-0.168-0.164-0.375-0.332-0.625-0.5c-0.25-0.164-0.462-0.25-0.626-0.25c-0.167,0-0.335-0.039-0.5-0.125
		c-0.168-0.082-0.336-0.125-0.501-0.125c-0.668-0.332-1.167-0.582-1.5-0.75c-0.836-0.164-1.711-0.664-2.625-1.5
		c-0.918-0.833-1.625-1.665-2.125-2.501V25.249z M201.164,63.445c0-0.295-1.749-0.445-5.243-0.445c-3.499,0-13.863,0-31.095,0
		c-10.083,0-18.699,0-25.852,0c-7.156,0-10.73,0.077-10.73,0.222c-0.164,0-0.244,0.371-0.244,1.111c0,0.743,0,3.353,0,3.353V72
		h2.476c1.135-0.411,1.829-0.449,2.072-0.533c0.244-0.08,0.122-0.445-0.365-1.098c-0.164-0.159-0.286-0.323-0.366-0.487
		c-0.084-0.16-0.122-0.324-0.122-0.488c0-0.323,0.202-0.689,0.61-1.097c0.403-0.404,0.77-0.61,1.097-0.61
		c0.324,0.164,0.446,0.328,0.366,0.488c-0.084,0.164-0.286,0.244-0.609,0.244c-0.328,0.163-0.53,0.449-0.61,0.854
		c-0.084,0.407-0.042,0.693,0.122,0.854c0.647,0.487,1.342,0.449,2.073-0.122c0.731-0.568,1.257-1.342,1.585-2.317
		c0.324-0.976,0.689-1.707,1.098-2.194c0.404-0.488,0.934-0.812,1.585-0.976c0.488,0,0.812,0.042,0.976,0.122
		c0.16,0.084,0.404,0.285,0.731,0.609c0.324,0.328,0.568,0.529,0.731,0.609c0.16,0.084,0.324,0.042,0.488-0.121
		c0.976-0.648,1.787-1.056,2.438-1.22c0.648-0.16,1.3,0,1.951,0.487c0.488,0.328,0.812,0.488,0.976,0.488
		c0.16,0,0.487-0.16,0.976-0.488c0.16-0.16,0.366-0.281,0.609-0.365c0.244-0.08,0.446-0.122,0.61-0.122
		c0.647,0,1.257,0.327,1.829,0.976c0.567,0.651,0.934,1.303,1.097,1.951c0.324,1.139,0.854,1.992,1.586,2.561
		c0.731,0.571,1.421,0.609,2.072,0.122c0.16-0.16,0.202-0.446,0.122-0.854c-0.084-0.404-0.285-0.69-0.609-0.854
		c-0.328-0.16-0.488-0.282-0.488-0.366c0-0.08,0.16-0.202,0.488-0.366c0.324,0,0.647,0.164,0.976,0.488
		c0.324,0.327,0.487,0.731,0.487,1.219c0,0.164-0.163,0.45-0.487,0.854c-0.328,0.407-0.651,0.609-0.976,0.609
		c-0.164,0.164-0.244,0.327-0.244,0.487c0.648,0.164,1.38,0.244,2.195,0.244c1.299,0,2.072-0.038,2.316-0.122
		c0.244-0.08,0.122-0.365-0.365-0.854c-0.328-0.324-0.488-0.731-0.488-1.22c0-0.487,0.16-0.892,0.488-1.219
		c0.323-0.324,0.609-0.488,0.854-0.488c0.243,0,0.445,0.164,0.609,0.488c-0.328,0.164-0.571,0.244-0.731,0.244
		c-0.164,0-0.328,0.083-0.488,0.243c-0.163,0.164-0.243,0.328-0.243,0.488c0,0.327,0.121,0.609,0.365,0.854s0.61,0.365,1.098,0.365
		s0.934-0.201,1.342-0.609c0.403-0.404,0.77-1.014,1.097-1.829c0.488-1.623,1.178-2.683,2.073-3.17
		c0.892-0.488,1.745-0.324,2.561,0.487c0.324,0.328,0.61,0.529,0.854,0.609c0.244,0.084,0.366,0.042,0.366-0.121
		c0-0.16,0.324-0.404,0.976-0.732c0.647-0.323,1.219-0.487,1.707-0.487c0.16,0,0.404,0.042,0.731,0.122
		c0.324,0.084,0.647,0.205,0.976,0.365l0.976,0.488l0.731-0.488c0.648-0.487,1.38-0.567,2.195-0.243
		c0.812,0.327,1.379,0.976,1.707,1.95L179.738,67h10.207l0.244-0.889c0-0.145,0.122-0.368,0.365-0.667
		c0.244-0.295,0.526-0.517,0.854-0.667c0.488-0.444,0.976-0.667,1.464-0.667c0.487,0,0.976,0.222,1.463,0.667
		c0.324,0.299,0.568,0.482,0.731,0.555c0.16,0.077,0.324,0.038,0.488-0.11c0.976-0.591,1.665-0.924,2.073-1
		c0.403-0.073,1.177,0.038,2.316,0.333c0.324,0,0.526-0.035,0.609-0.111c0.08-0.072,0.122-0.183,0.122-0.333
		C200.836,63.667,201,63.445,201.164,63.445z M168.451,74.231c0-0.152-1.961-0.231-5.884-0.231c-3.922,0-8.745,0-14.464,0H128v3h38
		v-0.922c0-0.307,0.038-0.538,0.122-0.693c0.08-0.152,0.449-0.306,1.103-0.461C167.551,74.772,167.96,74.541,168.451,74.231z
		 M140.475,65.736c-0.164-0.324-0.53-0.488-1.098-0.488c-0.572,0-1.018,0.164-1.342,0.488c-0.164,0.163-0.365,0.449-0.609,0.854
		c-0.244,0.407-0.45,0.854-0.609,1.341c-0.164,0.488-0.366,0.976-0.61,1.463c-0.244,0.488-0.449,0.816-0.609,0.976
		c-0.164,0.164-0.408,0.488-0.731,0.976c1.623,0.164,3.006,0.244,4.146,0.244c1.464,0,2.843-0.08,4.146-0.244
		c0-0.16-0.084-0.323-0.244-0.487c-0.164-0.16-0.328-0.324-0.488-0.488c-0.163-0.159-0.327-0.323-0.487-0.487
		c-0.164-0.16-0.328-0.324-0.488-0.488c0-0.323-0.121-0.487-0.365-0.487s-0.53,0.084-0.854,0.244
		c-0.328,0.164-0.693,0.122-1.098-0.122c-0.408-0.244-0.609-0.526-0.609-0.854c0-0.324,0.038-0.488,0.122-0.488
		c0.079,0,0.281,0.084,0.609,0.244c0.324,0.164,0.567,0.244,0.731,0.244c0.16,0,0.324-0.16,0.488-0.488
		c0.323-0.16,0.487-0.403,0.487-0.731C140.962,66.631,140.798,66.224,140.475,65.736z M146.571,65.979
		c-0.164-0.323-0.366-0.525-0.61-0.609c-0.243-0.08-0.693-0.122-1.341-0.122c-0.487,0-0.854,0.042-1.098,0.122
		c-0.244,0.084-0.529,0.206-0.854,0.366c-0.327,0.487-0.571,0.975-0.731,1.463c-0.164,0.487-0.164,0.976,0,1.463
		c0.16,0.652,0.487,1.14,0.976,1.464c0.487,0.327,1.056,0.487,1.707,0.487c0.487,0,0.854-0.038,1.098-0.122
		c0.243-0.08,0.525-0.281,0.854-0.609c0.323-0.324,0.525-0.609,0.609-0.854c0.08-0.244,0.122-0.609,0.122-1.098
		c0-0.487-0.042-0.854-0.122-1.098C147.097,66.59,146.895,66.308,146.571,65.979z M150.717,65.492c-0.164,0-0.365-0.038-0.609-0.122
		c-0.244-0.08-0.45-0.122-0.609-0.122c-0.652,0-1.098,0.206-1.342,0.609c-0.244,0.408-0.286,0.854-0.122,1.342
		c0,0.327,0.244,0.571,0.731,0.731c0.488,0.164,0.892,0.084,1.22-0.244c0-0.16,0.038-0.243,0.122-0.243
		c0.08,0,0.122,0.083,0.122,0.243c0.16,0.164,0.038,0.366-0.366,0.61c-0.407,0.243-0.854,0.365-1.341,0.365
		c-0.328,0-0.53,0.042-0.61,0.122c-0.084,0.084-0.122,0.206-0.122,0.366c-0.327,0.487-0.651,0.896-0.975,1.219
		c-0.164,0.164-0.408,0.488-0.732,0.976c1.787,0.164,3.331,0.244,4.634,0.244c1.787,0,2.965-0.038,3.536-0.122
		c0.568-0.08,0.854-0.202,0.854-0.365c-0.163-0.16-0.327-0.244-0.487-0.244c-0.488,0-0.976-0.324-1.463-0.976
		c-0.488-0.647-0.896-1.463-1.22-2.438c-0.328-0.488-0.571-0.934-0.731-1.342C151.041,65.697,150.877,65.492,150.717,65.492z
		 M167.756,65.806c-0.163,0-0.327-0.038-0.487-0.122c-0.164-0.08-0.408-0.122-0.731-0.122c-0.651,0-1.182,0.244-1.585,0.731
		c-0.408,0.488-0.694,1.14-0.854,1.951c-0.164,0.328-0.328,0.693-0.488,1.098c-0.164,0.407-0.407,0.773-0.731,1.098
		c-0.164,0.163-0.408,0.571-0.731,1.219c1.463,0.164,2.843,0.244,4.146,0.244c1.136,0,2.519-0.08,4.146-0.244
		c-0.488-0.487-0.896-0.892-1.22-1.219c-0.488-0.648-0.815-1.014-0.976-1.098c-0.164-0.08-0.408-0.038-0.731,0.122
		c-0.164,0.164-0.328,0.243-0.488,0.243c-0.164,0-0.407-0.159-0.731-0.487c-0.487-0.324-0.693-0.609-0.609-0.854
		c0.08-0.244,0.445-0.366,1.098-0.366H168v-0.731c0-0.324-0.042-0.609-0.122-0.854C167.794,66.171,167.756,65.97,167.756,65.806z
		 M167.057,26.707L166.325,25h-1.463c-0.328,0-0.61,0-0.854,0c-0.244,0-0.366,0.084-0.366,0.244c0,0.163,0.202,0.529,0.609,1.097
		c0.404,0.572,0.854,1.018,1.342,1.342c0.324,0.487,0.731,0.854,1.22,1.098c0.487,0.243,0.812,0.285,0.975,0.122
		c0-0.16-0.083-0.404-0.243-0.732C167.381,27.847,167.217,27.358,167.057,26.707z M217.052,23.391
		c-0.651-0.16-1.139-0.244-1.463-0.244c-7.968,0.164-17.925,0.45-29.875,0.854c-11.95,0.407-18.009,0.609-18.169,0.609
		c0,0.164,0.202,0.693,0.609,1.585c0.404,0.896,0.77,1.585,1.098,2.073L169.739,29h21.462c11.866,0,18.656-0.08,20.363-0.244
		c1.707-0.16,2.965-0.647,3.78-1.463c0.324-0.488,0.689-1.178,1.098-2.073C216.847,24.328,217.052,23.719,217.052,23.391z
		 M173.707,66.05c-0.164-0.16-0.366-0.282-0.609-0.366c-0.244-0.08-0.61-0.122-1.098-0.122c-0.815,0-1.384,0.084-1.707,0.244
		c-0.328,0.164-0.651,0.487-0.976,0.976c-0.328,0.976-0.286,1.913,0.122,2.805c0.403,0.896,1.014,1.341,1.829,1.341
		c0.323,0,0.525-0.08,0.609-0.244c0.08-0.159,0.122-0.567,0.122-1.219V68h1.22c0.647,0,1.014-0.038,1.097-0.121
		c0.08-0.08,0.122-0.282,0.122-0.61c0-0.16-0.042-0.365-0.122-0.609C174.233,66.415,174.031,66.213,173.707,66.05z M220,26.902V23
		h-0.731c-0.327,0-0.529,0.042-0.609,0.122c-0.084,0.084-0.206,0.366-0.366,0.854c-0.164,1.304-0.731,2.603-1.707,3.902
		c-0.976,1.304-2.035,2.115-3.17,2.438c-0.328,0.164-1.791,0.286-4.391,0.366c-2.603,0.084-7.968,0.122-16.096,0.122
		c-8.132,0-14.717,0.084-19.754,0.244c0,0.487,1.056,0.773,3.17,0.854c2.111,0.083,8.696,0.122,19.755,0.122
		c10.891,0,17.273-0.039,19.145-0.122c1.867-0.08,3.128-0.202,3.779-0.366L220,31.049V26.902z M178.275,66.05
		c-0.164-0.16-0.366-0.282-0.609-0.366c-0.244-0.08-0.61-0.122-1.098-0.122c-0.488,0-0.854,0.122-1.098,0.366
		c-0.244,0.243-0.366,0.693-0.366,1.341c0,0.328,0.122,0.53,0.366,0.61c0.244,0.083,0.77,0.121,1.585,0.121h1.951l-0.244-0.731
		c0-0.16-0.042-0.365-0.121-0.609C178.558,66.415,178.436,66.213,178.275,66.05z M179.495,69c0-0.254-0.084-0.376-0.244-0.46
		c-0.164-0.08-0.571-0.121-1.22-0.121c-1.303,0-2.034,0.083-2.194,0.243c-0.164,0.164-0.244,0.652,0.163,1.464V72h2.52
		c1.623-0.411,2.561-0.491,2.805-0.655c0.243-0.16-0.042-0.567-0.854-1.219c-0.164-0.16-0.328-0.366-0.488-0.61
		c-0.164-0.243-0.244-0.445-0.244-0.516H179.495z M183.641,68.975L183.396,68h-1.463c-0.976,0-1.547,0.041-1.707,0.121
		c-0.164,0.084-0.084,0.366,0.244,0.854c0.323,0.328,0.689,0.572,1.097,0.732c0.404,0.163,0.854,0.163,1.342,0
		c0.324,0,0.525-0.038,0.609-0.122C183.599,69.505,183.641,69.303,183.641,68.975z M184.86,71.102
		c-0.164-0.324-0.61-0.488-1.342-0.488s-1.098,0.244-1.098,0.731c0.324,0.164,0.732,0.244,1.22,0.244
		c0.488,0,0.812-0.038,0.976-0.122C184.776,71.387,184.86,71.265,184.86,71.102z M184.976,69.394c0-0.323-0.042-0.567-0.122-0.731
		c-0.084-0.16-0.205-0.243-0.365-0.243c-0.164,0-0.328,0.083-0.488,0.243c0,0.164,0,0.328,0,0.488c0,0.164-0.084,0.327-0.243,0.487
		c0,0.164,0.038,0.286,0.121,0.366c0.08,0.084,0.202,0.206,0.366,0.365c0.16,0.164,0.324,0.286,0.487,0.366
		c0.16,0.084,0.244,0.206,0.244,0.366c0.16,0.163,0.324,0.243,0.488,0.243c0.16,0,0.243-0.122,0.243-0.365
		c0-0.244-0.083-0.366-0.243-0.366C185.3,70.126,185.136,69.722,184.976,69.394z M189.171,68.487c0-0.16-0.084-0.282-0.244-0.366
		c-0.164-0.08-0.651-0.121-1.463-0.121H186v0.731c0,0.487,0.038,0.773,0.122,0.854c0.08,0.084,0.202,0.206,0.366,0.365
		c0.647,0,1.258-0.121,1.829-0.365C188.885,69.341,189.171,68.975,189.171,68.487z M191.688,74.027c0-0.159-0.084-0.281-0.244-0.365
		c-0.163-0.08-0.651-0.122-1.463-0.122c-0.487,0-1.06,0.084-1.707,0.244c0,0.163,0.324,0.327,0.976,0.487
		c0.647,0.164,1.379,0.244,2.194,0.244C191.604,74.355,191.688,74.191,191.688,74.027z M190.226,70.857
		c-0.164-0.16-0.45-0.244-0.854-0.244c-0.408,0-0.61,0.084-0.61,0.244c-0.327,0.164-0.407,0.327-0.243,0.487
		c0.16,0.164,0.567,0.244,1.219,0.244c0.324,0,0.648-0.08,0.976-0.244c0-0.16-0.042-0.281-0.122-0.365
		C190.508,70.899,190.386,70.857,190.226,70.857z M192.664,68.906c-0.164-0.16-0.407-0.282-0.731-0.366
		c-0.328-0.08-0.571-0.121-0.731-0.121c-0.328,0-0.572,0.041-0.731,0.121c-0.164,0.084-0.328,0.286-0.488,0.61
		c-0.164,0.327-0.244,0.571-0.244,0.731c0,0.164,0.16,0.328,0.488,0.487c0.487,0.328,0.892,0.53,1.219,0.61
		c0.324,0.084,0.568-0.038,0.732-0.366c0.16-0.16,0.323-0.282,0.487-0.365c0.16-0.08,0.324-0.122,0.488-0.122
		c0.159,0,0.201-0.122,0.121-0.366C193.19,69.516,192.988,69.234,192.664,68.906z M194.371,65.736
		c-0.164-0.16-0.327-0.282-0.487-0.366c-0.164-0.08-0.408-0.122-0.731-0.122c-0.488,0-0.896,0.084-1.22,0.244
		c-0.328,0.164-0.571,0.487-0.731,0.976c-0.328,0.651-0.408,1.018-0.244,1.098c0.16,0.083,0.731,0.121,1.707,0.121
		c0.812,0,1.342-0.038,1.585-0.121c0.244-0.08,0.366-0.282,0.366-0.61c0-0.16-0.042-0.365-0.122-0.609
		C194.409,66.102,194.371,65.899,194.371,65.736z M196.566,74.027c0-0.159-0.084-0.281-0.244-0.365
		c-0.164-0.08-0.487-0.122-0.976-0.122c-0.327,0-0.609,0.042-0.854,0.122c-0.244,0.084-0.449,0.122-0.609,0.122
		c-0.164,0-0.328,0.042-0.488,0.122c-0.163,0.083-0.327,0.121-0.487,0.121c-0.328,0-0.53,0.042-0.609,0.122
		c-0.084,0.084-0.122,0.206-0.122,0.366c0,0.164,0.038,0.286,0.122,0.365c0.079,0.084,0.201,0.122,0.365,0.122
		c0.16,0,0.488,0.042,0.976,0.122c0.488,0.084,0.976,0.206,1.463,0.366c1.136,0.487,1.867,0.693,2.195,0.609
		c0.324-0.08,0.324-0.445,0-1.098c-0.164-0.16-0.286-0.365-0.366-0.609C196.849,74.149,196.727,74.027,196.566,74.027z
		 M195.103,71.102c0-0.16-0.121-0.282-0.365-0.366c-0.244-0.08-0.53-0.122-0.854-0.122c-0.651,0-1.06,0.042-1.22,0.122
		c-0.164,0.084-0.244,0.286-0.244,0.609c0.488,0.164,0.976,0.244,1.464,0.244c0.487,0,0.812-0.038,0.976-0.122
		C195.02,71.387,195.103,71.265,195.103,71.102z M195,69.394c-0.164-0.159-0.285-0.281-0.365-0.365
		c-0.084-0.08-0.206-0.122-0.366-0.122c-0.487,0-0.731,0.206-0.731,0.609c0,0.408,0.244,0.61,0.731,0.61
		c0.324,0.163,0.525,0.205,0.609,0.122c0.08-0.08,0.122-0.282,0.122-0.61V69.394z M199.736,65.806
		c-0.651-0.16-1.139-0.244-1.463-0.244c-0.651,0-1.262,0.206-1.829,0.609c-0.571,0.408-0.854,0.854-0.854,1.342
		c0,0.164,0.08,0.286,0.244,0.366c0.16,0.083,0.731,0.121,1.707,0.121h2.194l0.244-0.976c0.16-0.323,0.202-0.567,0.122-0.731
		C200.019,66.133,199.896,65.97,199.736,65.806z M199.249,68.243c0-0.16-0.164-0.243-0.488-0.243c-0.327,0-0.815,0-1.463,0
		c-0.815,0-1.303,0.041-1.463,0.121c-0.164,0.084-0.244,0.206-0.244,0.366c0,0.328,0.282,0.693,0.854,1.098
		c0.567,0.407,1.014,0.609,1.341,0.609c0.488,0,0.771-0.038,0.854-0.122c0.079-0.08,0.201-0.365,0.365-0.854
		C199.005,69.059,199.085,68.731,199.249,68.243z M196.811,71.102c-0.164-0.16-0.328-0.244-0.488-0.244
		c-0.164,0.164-0.244,0.327-0.244,0.487c0.16,0.164,0.324,0.244,0.488,0.244C196.727,71.429,196.811,71.265,196.811,71.102z
		 M198,73.784c-0.163-0.16-0.327-0.244-0.487-0.244c-0.164,0.164-0.244,0.328-0.244,0.487c0.16,0.164,0.324,0.244,0.488,0.244
		L198,74.027V73.784z M217.296,73.784c0-0.16-0.244-0.244-0.731-0.244c-0.488,0-0.815,0.164-0.976,0.487
		c-0.164,0.488-0.328,0.896-0.488,1.22c-0.163,0.488-0.205,0.773-0.121,0.854c0.08,0.084,0.365,0.042,0.854-0.122
		c0.323-0.16,0.647-0.445,0.976-0.854C217.132,74.722,217.296,74.271,217.296,73.784z M220,75.247V74h-1.241
		c-0.327,0.027-0.571,0.069-0.731,0.149c-0.164,0.084-0.327,0.286-0.487,0.61c-0.164,0.163-0.286,0.365-0.366,0.609
		c-0.084,0.244-0.206,0.366-0.365,0.366c-0.328,0.327-0.408,0.571-0.244,0.731c0.16,0.163,0.731,0.243,1.707,0.533H220V75.247z
		 M219.734,68.731c0-0.324-0.042-0.526-0.121-0.61c-0.084-0.08-0.45-0.121-1.098-0.121c-0.328,0-0.572,0-0.732,0
		c-0.163,0-0.243,0.083-0.243,0.243c0.16,0,0.202,0.122,0.122,0.366c-0.084,0.244-0.206,0.529-0.366,0.854
		c-0.164,0.328-0.286,0.571-0.366,0.731c-0.083,0.164-0.121,0.328-0.121,0.488c0.647,0,0.975-0.08,0.975-0.244
		c0.16-0.16,0.324-0.324,0.488-0.488c0.16-0.159,0.324-0.243,0.487-0.243c0.488-0.16,0.771-0.282,0.854-0.366
		C219.692,69.261,219.734,69.059,219.734,68.731z M220,66.293c0-0.323-0.083-0.812-0.243-1.463c-0.328,0.651-0.572,1.22-0.732,1.707
		L218.293,68H220V66.293z M219.734,71.102c0-0.16-0.042-0.282-0.121-0.366c-0.084-0.08-0.286-0.122-0.61-0.122
		c-0.327,0-0.571,0.042-0.731,0.122c-0.164,0.084-0.244,0.286-0.244,0.609c0.324,0.164,0.648,0.244,0.976,0.244
		c0.324,0,0.526-0.038,0.61-0.122C219.692,71.387,219.734,71.265,219.734,71.102z M229,38.608V23h-4.318l-0.227,0.731
		c0,0.164-0.039,0.407-0.114,0.731c-0.078,0.328-0.114,0.651-0.114,0.976c0,0.164-0.039,1.547-0.114,4.146
		c-0.078,2.604-0.114,5.609-0.114,9.024v12.438l1.137,0.487c1.058,0.488,1.779,0.854,2.159,1.098
		c0.377,0.244,0.717,0.609,1.023,1.098c0,0.164,0.149,0.407,0.454,0.731c0.149,0,0.228-1.543,0.228-4.634
		C229,46.74,229,42.998,229,38.608z M229,63.059c0-1.411,0-2.588,0-3.529c0-0.941-0.078-1.411-0.228-1.411
		c-0.305,0.316-0.454,0.551-0.454,0.706c-0.306,0.47-0.721,0.787-1.25,0.941c-0.532,0.158-1.175,0.235-1.931,0.235H224v8h5V63.059z
		 M229,72.746V68h-5v4.246c0,1.669,0.035,2.67,0.114,3.002c0.075,0.337,0.188,0.587,0.341,0.752c0.148,0,0.34,0,0.568,0
		s0.49,0,0.795,0c0.149,0,0.302-0.082,0.454-0.251c0.149-0.164,0.228-0.415,0.228-0.75c0-0.333-0.039-0.54-0.114-0.626
		c-0.078-0.082-0.191-0.207-0.34-0.375c-0.455-0.164-0.721-0.25-0.795-0.25c-0.078,0-0.039-0.082,0.113-0.251
		c0.302,0,0.604,0.086,0.909,0.251c0.302,0.168,0.53,0.418,0.683,0.75c0.148,0.168,0.187,0.337,0.113,0.501
		c-0.077,0.167-0.191,0.418-0.34,0.75c-0.306,0.5-0.42,0.837-0.341,1.001c0.075,0.167,0.491,0.249,1.25,0.249H229V72.746z"/>
</g>
</svg>
